<?xml version="1.0" standalone="no"?>
<!DOCTYPE svg PUBLIC "-//W3C//DTD SVG 20010904//EN"
 "http://www.w3.org/TR/2001/REC-SVG-20010904/DTD/svg10.dtd">
<svg version="1.0" xmlns="http://www.w3.org/2000/svg"
 width="512.000000pt" height="512.000000pt" viewBox="0 0 512.000000 512.000000"
 preserveAspectRatio="xMidYMid meet">

<g transform="translate(0.000000,512.000000) scale(0.100000,-0.100000)"
fill="#000000" stroke="none">
<path d="M2330 5110 c-494 -48 -950 -230 -1350 -538 -195 -150 -448 -432 -594
-662 -63 -99 -186 -351 -230 -471 -49 -134 -102 -340 -128 -499 -31 -195 -31
-565 0 -760 45 -276 116 -498 237 -745 132 -269 269 -460 489 -681 221 -220
412 -357 681 -489 247 -121 471 -192 745 -236 162 -26 532 -32 690 -11 538 72
1018 292 1406 644 103 93 124 122 124 168 0 46 -55 100 -103 100 -39 0 -59
-14 -200 -140 -596 -534 -1474 -714 -2252 -463 -368 119 -661 299 -940 578
-374 373 -589 803 -670 1340 -23 151 -23 479 0 630 54 355 169 667 353 955
161 253 449 541 702 702 226 144 507 262 757 317 185 41 302 53 513 53 275 0
467 -29 713 -108 371 -120 663 -300 942 -579 373 -372 592 -810 669 -1336 22
-150 32 -492 17 -604 -35 -261 -197 -455 -451 -541 -83 -28 -281 -27 -375 3
-191 61 -352 220 -418 413 -21 63 -22 82 -27 625 -4 423 -8 565 -18 582 -19
34 -53 53 -93 53 -71 0 -109 -57 -109 -164 l0 -48 -45 54 c-111 135 -288 254
-475 320 -197 69 -466 67 -675 -4 -260 -89 -484 -285 -607 -533 -77 -155 -110
-296 -110 -475 0 -296 111 -559 320 -762 312 -302 755 -385 1158 -217 163 68
361 231 454 374 23 36 44 65 46 65 2 0 17 -26 33 -57 57 -111 126 -196 227
-279 300 -247 739 -252 1053 -9 143 110 239 252 298 442 l28 88 -1 300 c0 259
-3 319 -22 435 -45 276 -116 498 -237 745 -132 269 -269 460 -489 681 -221
220 -412 357 -681 489 -246 121 -474 193 -740 235 -147 23 -475 34 -615 20z
m487 -1739 c107 -35 136 -49 218 -104 168 -113 281 -270 346 -477 20 -65 24
-96 24 -230 0 -165 -12 -226 -71 -357 -74 -168 -249 -343 -418 -418 -130 -58
-191 -70 -356 -70 -165 0 -226 12 -356 70 -169 75 -344 250 -418 418 -59 131
-71 192 -71 357 0 134 4 165 24 230 34 108 64 171 121 254 113 164 271 277
465 334 99 29 114 31 265 27 119 -3 146 -7 227 -34z"/>
</g>
</svg>
