<?xml version="1.0" encoding="UTF-8"?>
<svg version="1.1" xmlns="http://www.w3.org/2000/svg" width="512" height="512">
<path d="M0 0 C5.7962997 4.8060985 10.3217572 10.40536651 11.34375 18.0703125 C11.42092514 27.29274178 10.74375685 34.58008811 4.078125 41.390625 C-3.80034851 47.85097328 -12.04522296 48.88512464 -21.98828125 49.24609375 C-24.96199926 49.53865131 -26.69987239 49.84384926 -29.125 51.5546875 C-30.06260804 54.36751161 -30.29299899 56.26639213 -30.38134766 59.19042969 C-30.4248082 60.59769318 -30.4248082 60.59769318 -30.46914673 62.03338623 C-30.56690689 66.32348274 -30.64065918 70.61342947 -30.69482422 74.90429688 C-30.73149778 77.16442662 -30.78608126 79.42433928 -30.85888672 81.68359375 C-30.9624727 84.94870021 -31.00677468 88.21006481 -31.0390625 91.4765625 C-31.10403427 92.98316437 -31.10403427 92.98316437 -31.1703186 94.52020264 C-31.15896303 98.75766995 -31.11918074 101.45407201 -28.20428467 104.68103027 C-25.91698575 106.46868136 -23.5836555 108.0147524 -21.125 109.5546875 C-10.9831948 117.43205723 -5.66792757 126.68041474 -1.125 138.5546875 C-0.73054688 139.46992188 -0.33609375 140.38515625 0.0703125 141.328125 C4.21005175 150.96821711 4.21005175 150.96821711 2.21484375 156.328125 C1.71468716 159.60501302 2.88984293 161.75228784 4.125 164.8046875 C9.61994423 179.10792825 11.01796667 194.33321798 11.078125 209.55078125 C11.08382507 210.69716568 11.08952515 211.84355011 11.09539795 213.02467346 C11.10481259 215.45109141 11.11136781 217.87752194 11.11523438 220.30395508 C11.12481491 223.9222831 11.15582009 227.54001112 11.1875 231.15820312 C11.40500066 278.84074204 0.56944088 326.4538892 -22.125 368.5546875 C-22.46321777 369.19631836 -22.80143555 369.83794922 -23.14990234 370.49902344 C-31.62171389 386.52805357 -42.05758894 401.04557599 -54.125 414.5546875 C-54.60437012 415.09577148 -55.08374023 415.63685547 -55.57763672 416.19433594 C-104.40777002 471.09402422 -174.90839869 496.17016877 -246.125 505.5546875 C-247.30094727 505.71984863 -248.47689453 505.88500977 -249.68847656 506.05517578 C-269.76092668 508.78207368 -289.91588366 508.86742523 -310.13471222 508.92260361 C-312.26967004 508.92954818 -314.40455842 508.94120152 -316.53948975 508.95376587 C-373.19789939 509.24140162 -441.31927399 502.82027647 -484 461.2421875 C-494.26301605 450.8593697 -501.29015144 439.23906067 -501.5625 424.4296875 C-501.51952608 418.39601038 -501.14365647 414.20786867 -497.125 409.5546875 C-489.30887867 402.5201783 -477.46953841 402.04683885 -467.4375 402.1796875 C-465.75213135 402.18947632 -465.75213135 402.18947632 -464.03271484 402.19946289 C-448.6505419 402.4272032 -433.31353409 403.81937589 -417.98388672 405.02088928 C-349.73048223 410.36720769 -267.62555914 411.47099574 -212.125 365.5546875 C-211.57231445 365.09980957 -211.01962891 364.64493164 -210.45019531 364.17626953 C-170.99310036 331.19090946 -159.01973391 278.12440151 -151.17697144 229.79373169 C-140.43264175 163.73727864 -140.43264175 163.73727864 -120.02734375 144.5859375 C-117.97937458 142.39919423 -117.25485504 140.80996833 -116.3125 137.9921875 C-110.97840622 123.96702201 -101.36909324 113.47109248 -88.375 106.125 C-85.85006738 104.36280744 -85.24665266 103.37468763 -84.125 100.5546875 C-83.82118274 98.23281232 -83.82118274 98.23281232 -83.85375977 95.73291016 C-83.84357315 94.77736237 -83.83338654 93.82181458 -83.82289124 92.83731079 C-83.82075119 91.80818573 -83.81861115 90.77906067 -83.81640625 89.71875 C-83.79121822 87.51692476 -83.76582066 85.3151019 -83.74023438 83.11328125 C-83.71167268 79.66000149 -83.68764856 76.20676391 -83.66870117 72.75341797 C-83.52551861 50.90470266 -82.2435082 30.79509158 -67.125 13.5546875 C-52.46446294 -0.71620073 -18.97590098 -11.99548026 0 0 Z " fill="#F34235" transform="translate(501.125,3.4453125)"/>
<path d="M0 0 C8.23774989 5.81247446 15.75803007 12.36826041 23.14453125 19.21875 C24.00498047 20.01539063 24.00498047 20.01539063 24.8828125 20.828125 C26.01541462 21.91287069 27.08960083 23.05832654 28.14453125 24.21875 C28.14453125 24.87875 28.14453125 25.53875 28.14453125 26.21875 C32.9282291 22.21078693 34.861566 18.32472512 36.14453125 12.21875 C36.2522186 7.8848579 35.71569949 3.62637161 35.20703125 -0.671875 C34.63923851 -7.09380667 34.63923851 -7.09380667 37.3984375 -10.84765625 C40.30352659 -12.89320262 42.22263377 -13.57457946 45.7890625 -13.3203125 C62.87747631 -9.40953123 79.995599 6.95042182 89.4296875 21.34375 C101.36310064 41.35056566 109.19546931 62.52867523 109.34765625 86.13671875 C109.35453461 86.8682164 109.36141296 87.59971405 109.36849976 88.3533783 C109.385586 90.70438683 109.39195562 93.05518265 109.39453125 95.40625 C109.396203 96.2081073 109.39787476 97.0099646 109.39959717 97.83612061 C109.4011817 110.51904093 108.63118514 122.755105 106.14453125 135.21875 C105.98331787 136.10264404 105.82210449 136.98653809 105.65600586 137.8972168 C105.4885083 138.79351807 105.32101074 139.68981934 105.1484375 140.61328125 C104.99705322 141.43159424 104.84566895 142.24990723 104.68969727 143.09301758 C103.89568023 146.18907953 102.85393593 147.53452547 100.14453125 149.21875 C96.39453125 149.96875 96.39453125 149.96875 93.14453125 150.21875 C92.75974609 151.49685547 92.75974609 151.49685547 92.3671875 152.80078125 C85.6913986 171.4631304 69.57976211 189.36529566 53.14453125 200.21875 C52.48453125 200.21875 51.82453125 200.21875 51.14453125 200.21875 C50.98984375 201.3634375 50.98984375 201.3634375 50.83203125 202.53125 C50.0558376 205.56546154 49.76391084 206.52882768 47.14453125 208.21875 C45.22833789 208.50146705 43.30774906 208.78284943 41.375 208.91015625 C36.46513732 209.58945424 31.98403076 211.68382817 27.43920898 213.57910156 C6.1891328 222.29242187 -17.7918649 227.80100087 -40.85546875 227.21875 C-40.95859375 227.816875 -41.06171875 228.415 -41.16796875 229.03125 C-41.95542203 231.53678315 -42.86450736 232.54634243 -44.85546875 234.21875 C-48.75181355 236.1669224 -52.74228472 235.19398896 -56.85546875 234.21875 C-66.96217396 230.48732705 -75.40137443 225.0059882 -82.85546875 217.21875 C-83.47550781 216.62964844 -84.09554687 216.04054688 -84.734375 215.43359375 C-97.93429479 201.99743378 -101.13245539 183.24422109 -101.85546875 165.21875 C-103.32306641 165.14527344 -103.32306641 165.14527344 -104.8203125 165.0703125 C-106.13128906 164.99554688 -107.44226563 164.92078125 -108.79296875 164.84375 C-109.81934448 164.78537964 -109.81934448 164.78537964 -110.86645508 164.72583008 C-114.74271195 164.47083125 -118.30941228 163.96492625 -122.04296875 162.90625 C-123.93015625 162.5659375 -123.93015625 162.5659375 -125.85546875 162.21875 C-127.98038713 164.0101734 -127.98038713 164.0101734 -129.85546875 166.21875 C-134.01215624 167.50875646 -136.25016763 167.88310167 -140.28125 166.21484375 C-155.6989594 157.41500028 -165.5941354 143.86496536 -170.859375 127.00390625 C-174.62606131 112.57404033 -174.68567776 98.40148631 -172.54296875 83.71875 C-172.4253418 82.8947168 -172.30771484 82.07068359 -172.18652344 81.22167969 C-170.14068382 68.31353048 -170.14068382 68.31353048 -165.60546875 64.15625 C-161.8732707 62.88390976 -159.63234716 63.12002174 -155.85546875 64.21875 C-153.51227223 66.41993461 -152.10468963 68.77894845 -150.52734375 71.5625 C-146.57250212 78.47306537 -142.40447298 84.08039993 -134.85546875 87.21875 C-128.00745913 88.22032964 -122.55802708 87.09699996 -116.85546875 83.21875 C-111.01906467 78.57615585 -108.34147302 73.1382844 -107.43359375 65.81640625 C-106.43054473 38.37187062 -119.92664332 11.26293454 -132.26586914 -12.49707031 C-132.95217407 -13.82689941 -132.95217407 -13.82689941 -133.65234375 -15.18359375 C-134.07225586 -15.984021 -134.49216797 -16.78444824 -134.92480469 -17.60913086 C-135.85546875 -19.78125 -135.85546875 -19.78125 -135.91796875 -23.15625 C-134.67789096 -26.21997159 -133.4692764 -27.7648841 -130.85546875 -29.78125 C-92.67502406 -42.28571764 -31.5022827 -21.34691141 0 0 Z " fill="#FD5621" transform="translate(211.85546875,157.78125)"/>
<path d="M0 0 C5.7962997 4.8060985 10.3217572 10.40536651 11.34375 18.0703125 C11.42092514 27.29274178 10.74375685 34.58008811 4.078125 41.390625 C-3.80034851 47.85097328 -12.04522296 48.88512464 -21.98828125 49.24609375 C-24.96199926 49.53865131 -26.69987239 49.84384926 -29.125 51.5546875 C-30.06260804 54.36751161 -30.29299899 56.26639213 -30.38134766 59.19042969 C-30.4248082 60.59769318 -30.4248082 60.59769318 -30.46914673 62.03338623 C-30.56690689 66.32348274 -30.64065918 70.61342947 -30.69482422 74.90429688 C-30.73149778 77.16442662 -30.78608126 79.42433928 -30.85888672 81.68359375 C-30.9624727 84.94870021 -31.00677468 88.21006481 -31.0390625 91.4765625 C-31.10403427 92.98316437 -31.10403427 92.98316437 -31.1703186 94.52020264 C-31.15896303 98.75766995 -31.11918074 101.45407201 -28.20428467 104.68103027 C-25.91698575 106.46868136 -23.5836555 108.0147524 -21.125 109.5546875 C-10.9831948 117.43205723 -5.66792757 126.68041474 -1.125 138.5546875 C-0.73054688 139.46992188 -0.33609375 140.38515625 0.0703125 141.328125 C4.21005175 150.96821711 4.21005175 150.96821711 2.21484375 156.328125 C1.71468716 159.60501302 2.88984293 161.75228784 4.125 164.8046875 C9.61994423 179.10792825 11.01796667 194.33321798 11.078125 209.55078125 C11.08382507 210.69716568 11.08952515 211.84355011 11.09539795 213.02467346 C11.10481259 215.45109141 11.11136781 217.87752194 11.11523438 220.30395508 C11.12481491 223.9222831 11.15582009 227.54001112 11.1875 231.15820312 C11.40500066 278.84074204 0.56944088 326.4538892 -22.125 368.5546875 C-22.46321777 369.19631836 -22.80143555 369.83794922 -23.14990234 370.49902344 C-31.62171389 386.52805357 -42.05758894 401.04557599 -54.125 414.5546875 C-54.60437012 415.09577148 -55.08374023 415.63685547 -55.57763672 416.19433594 C-104.40777002 471.09402422 -174.90839869 496.17016877 -246.125 505.5546875 C-247.30094727 505.71984863 -248.47689453 505.88500977 -249.68847656 506.05517578 C-269.76092668 508.78207368 -289.91588366 508.86742523 -310.13471222 508.92260361 C-312.26967004 508.92954818 -314.40455842 508.94120152 -316.53948975 508.95376587 C-373.19789939 509.24140162 -441.31927399 502.82027647 -484 461.2421875 C-494.26301605 450.8593697 -501.29015144 439.23906067 -501.5625 424.4296875 C-501.51952608 418.39601038 -501.14365647 414.20786867 -497.125 409.5546875 C-489.30887867 402.5201783 -477.46953841 402.04683885 -467.4375 402.1796875 C-465.75213135 402.18947632 -465.75213135 402.18947632 -464.03271484 402.19946289 C-448.6505419 402.4272032 -433.31353409 403.81937589 -417.98388672 405.02088928 C-349.73048223 410.36720769 -267.62555914 411.47099574 -212.125 365.5546875 C-211.57231445 365.09980957 -211.01962891 364.64493164 -210.45019531 364.17626953 C-170.99310036 331.19090946 -159.01973391 278.12440151 -151.17697144 229.79373169 C-140.43264175 163.73727864 -140.43264175 163.73727864 -120.02734375 144.5859375 C-117.97937458 142.39919423 -117.25485504 140.80996833 -116.3125 137.9921875 C-110.97840622 123.96702201 -101.36909324 113.47109248 -88.375 106.125 C-85.85006738 104.36280744 -85.24665266 103.37468763 -84.125 100.5546875 C-83.82118274 98.23281232 -83.82118274 98.23281232 -83.85375977 95.73291016 C-83.84357315 94.77736237 -83.83338654 93.82181458 -83.82289124 92.83731079 C-83.82075119 91.80818573 -83.81861115 90.77906067 -83.81640625 89.71875 C-83.79121822 87.51692476 -83.76582066 85.3151019 -83.74023438 83.11328125 C-83.71167268 79.66000149 -83.68764856 76.20676391 -83.66870117 72.75341797 C-83.52551861 50.90470266 -82.2435082 30.79509158 -67.125 13.5546875 C-52.46446294 -0.71620073 -18.97590098 -11.99548026 0 0 Z M-111.75 161.6796875 C-127.23905645 182.80112811 -131.01868649 211.45934447 -134.57421875 236.75 C-139.33811542 269.5291055 -147.23025023 302.2838421 -163.125 331.5546875 C-163.61355469 332.51890625 -164.10210937 333.483125 -164.60546875 334.4765625 C-177.07002648 358.63755395 -196.46885374 377.96752803 -219.125 392.5546875 C-220.61966797 393.52728516 -220.61966797 393.52728516 -222.14453125 394.51953125 C-233.60664109 401.58916823 -246.42654367 406.3313144 -259.0625 410.8671875 C-260.01709106 411.21245483 -260.01709106 411.21245483 -260.9909668 411.56469727 C-271.37208769 415.1806529 -282.12940741 417.24394237 -292.9375 419.1171875 C-294.64196289 419.42946289 -294.64196289 419.42946289 -296.38085938 419.74804688 C-318.90209109 423.67173498 -341.4337485 423.8770251 -364.2199707 423.81542969 C-368.44715908 423.80408207 -372.67409418 423.81077669 -376.90127373 423.82231903 C-420.42437709 423.92280401 -420.42437709 423.92280401 -439.80419922 420.99975586 C-443.97658688 420.44055407 -448.06481026 420.39249063 -452.26953125 420.38671875 C-453.54602791 420.38172615 -453.54602791 420.38172615 -454.84831238 420.37663269 C-456.63413964 420.37159815 -458.4199762 420.36922328 -460.20581055 420.36938477 C-462.94660567 420.36718018 -465.68700935 420.34893913 -468.42773438 420.33007812 C-470.16666529 420.32714715 -471.90559812 420.32516038 -473.64453125 420.32421875 C-474.87572441 420.31344048 -474.87572441 420.31344048 -476.13179016 420.30244446 C-480.60053168 420.13008653 -480.60053168 420.13008653 -484.125 422.5546875 C-483.91523612 434.30146468 -477.12045686 442.55923064 -469.125 450.5546875 C-468.49722656 451.18246094 -467.86945313 451.81023437 -467.22265625 452.45703125 C-429.27302478 487.83924579 -365.03407274 491.79209317 -316.125 491.7421875 C-314.61814133 491.74177963 -314.61814133 491.74177963 -313.08084106 491.74136353 C-289.26504536 491.71187247 -265.4885539 491.0015608 -241.95605469 487.03173828 C-238.67398392 486.47868841 -235.38779349 485.95353252 -232.1015625 485.42578125 C-182.46247351 477.32117555 -133.09059298 460.39202404 -94.125 427.5546875 C-93.53638184 427.06613281 -92.94776367 426.57757813 -92.34130859 426.07421875 C-80.79367479 416.48354984 -70.42658996 406.38145137 -61.125 394.5546875 C-60.33351563 393.58015625 -59.54203125 392.605625 -58.7265625 391.6015625 C-42.5672346 371.31319498 -30.57320398 347.99921825 -22.125 323.5546875 C-21.77663086 322.55066895 -21.42826172 321.54665039 -21.06933594 320.51220703 C-16.32543214 306.67832982 -12.53423942 292.97788359 -10.125 278.5546875 C-9.91085449 277.32081299 -9.91085449 277.32081299 -9.69238281 276.06201172 C-9.26322917 273.5820823 -8.84671589 271.10048053 -8.4375 268.6171875 C-8.25803833 267.53655029 -8.25803833 267.53655029 -8.07495117 266.43408203 C-6.09006665 253.71873045 -5.9385861 240.97465839 -5.93969727 228.13623047 C-5.93751478 225.3237382 -5.91930386 222.51164188 -5.90039062 219.69921875 C-5.83447807 198.78323668 -7.01749244 176.89794283 -18.125 158.5546875 C-20.44050171 156.23918579 -20.97217115 156.21289838 -24.125 156.1171875 C-32.81698317 156.29943876 -40.31311686 161.62729275 -46.1875 167.6796875 C-49.32451418 170.71550767 -52.08227085 171.84398024 -56.4375 171.8671875 C-64.09877009 171.60515709 -67.66183012 169.19632042 -72.8125 163.7421875 C-79.51054156 156.79004725 -87.93014817 151.61439334 -97.81640625 151.203125 C-103.99365445 152.14382269 -107.93591839 157.10612793 -111.75 161.6796875 Z " fill="#010000" transform="translate(501.125,3.4453125)"/>
<path d="M0 0 C2.8670489 0.87556151 5.53637693 2.04451656 8.25 3.3125 C9.02504883 3.66787842 9.80009766 4.02325684 10.59863281 4.3894043 C25.23588858 11.2599829 38.73786767 19.44973977 51 30 C51.52142578 30.44311523 52.04285156 30.88623047 52.58007812 31.34277344 C70.45325273 46.6546483 84.6687562 66.04924124 91 89 C91.41765625 90.37865234 91.41765625 90.37865234 91.84375 91.78515625 C97.0587566 111.65529713 95.97779604 138.79419472 88 158 C85.7219455 160.93455436 85.10459022 160.98456866 81.1875 161.5625 C80.21876953 161.62630859 80.21876953 161.62630859 79.23046875 161.69140625 C74.32060607 162.37070424 69.83949951 164.46507817 65.29467773 166.36035156 C44.04460155 175.07367187 20.06360385 180.58225087 -3 180 C-3.103125 180.598125 -3.20625 181.19625 -3.3125 181.8125 C-4.09995328 184.31803315 -5.00903861 185.32759243 -7 187 C-10.8963448 188.9481724 -14.88681597 187.97523896 -19 187 C-29.10670521 183.26857705 -37.54590568 177.7872382 -45 170 C-45.62003906 169.41089844 -46.24007812 168.82179688 -46.87890625 168.21484375 C-59.75506599 155.10823819 -63.9815852 135.75186518 -64 118 C-62.71459028 96.21814806 -51.35128274 80.97089588 -35.6953125 66.93359375 C-34.39835136 65.80569175 -33.09903183 64.68049334 -31.796875 63.55859375 C-20.47914822 53.74169596 -13.07750529 42.16930386 -12 27 C-12.00438216 22.28786458 -12.16576051 17.57567929 -12.390625 12.86914062 C-12.49196692 8.24858268 -12.50300648 5.76869223 -9.921875 1.82421875 C-6.1750957 -0.51501378 -4.36599948 -0.61252946 0 0 Z " fill="#FD9700" transform="translate(174,205)"/>
<path d="M0 0 C8.23774989 5.81247446 15.75803007 12.36826041 23.14453125 19.21875 C24.00498047 20.01539063 24.00498047 20.01539063 24.8828125 20.828125 C26.01541462 21.91287069 27.08960083 23.05832654 28.14453125 24.21875 C28.14453125 24.87875 28.14453125 25.53875 28.14453125 26.21875 C32.9282291 22.21078693 34.861566 18.32472512 36.14453125 12.21875 C36.2522186 7.8848579 35.71569949 3.62637161 35.20703125 -0.671875 C34.63923851 -7.09380667 34.63923851 -7.09380667 37.3984375 -10.84765625 C40.30352659 -12.89320262 42.22263377 -13.57457946 45.7890625 -13.3203125 C62.87747631 -9.40953123 79.995599 6.95042182 89.4296875 21.34375 C101.36310064 41.35056566 109.19546931 62.52867523 109.34765625 86.13671875 C109.35453461 86.8682164 109.36141296 87.59971405 109.36849976 88.3533783 C109.385586 90.70438683 109.39195562 93.05518265 109.39453125 95.40625 C109.396203 96.2081073 109.39787476 97.0099646 109.39959717 97.83612061 C109.40118174 110.51934954 108.62989156 122.75466804 106.14453125 135.21875 C105.98404297 136.10264404 105.82355469 136.98653809 105.65820312 137.8972168 C105.40780273 139.2416687 105.40780273 139.2416687 105.15234375 140.61328125 C105.00168457 141.43159424 104.85102539 142.24990723 104.69580078 143.09301758 C103.90335208 146.14875312 102.7940115 147.5260265 100.14453125 149.21875 C97.26953125 150.21875 97.26953125 150.21875 94.14453125 150.21875 C88.63803774 147.20576299 88.63803774 147.20576299 87.14453125 144.21875 C86.89902789 138.4462735 87.52136983 133.19180016 88.58203125 127.53125 C94.18343768 95.41043015 93.54945724 58.9007354 74.14453125 31.21875 C68.43049038 23.46274157 62.16270662 16.66319006 54.14453125 11.21875 C54.22703125 12.146875 54.30953125 13.075 54.39453125 14.03125 C54.35522667 23.73948208 49.09323043 32.20018683 42.484375 38.90234375 C37.61545586 43.34980747 32.54350897 47.18313789 25.7890625 47.25390625 C20.79405233 45.83517346 18.94225271 43.21507307 15.83203125 39.21875 C14.69191847 37.83618822 13.54737187 36.45727088 12.3984375 35.08203125 C11.56530029 34.07970459 11.56530029 34.07970459 10.71533203 33.05712891 C-4.17327305 15.63232376 -26.6390021 5.53640562 -47.85546875 -1.78125 C-49.09425781 -2.22339844 -50.33304687 -2.66554687 -51.609375 -3.12109375 C-70.55828012 -9.63959538 -90.88168316 -12.14149864 -110.85546875 -11.78125 C-110.38238281 -10.8325 -109.90929687 -9.88375 -109.421875 -8.90625 C-96.29175799 17.90513304 -82.46538909 49.7421707 -91.5390625 79.80859375 C-95.5737848 90.26055982 -103.06474638 97.672388 -112.9296875 102.82421875 C-122.62083192 106.99760664 -132.70500653 108.13689101 -142.71484375 104.28125 C-146.96790739 102.17024031 -151.47509033 99.59912842 -154.85546875 96.21875 C-155.22431502 112.7348664 -153.90821705 127.84568627 -142.88671875 141.1875 C-139.94657169 144.12764706 -136.68539423 146.38234084 -133.1875 148.61328125 C-127.17875665 152.74995381 -127.17875665 152.74995381 -126.359375 156.47265625 C-126.37871094 157.23449219 -126.39804688 157.99632812 -126.41796875 158.78125 C-126.41925781 159.54566406 -126.42054687 160.31007813 -126.421875 161.09765625 C-126.96076237 163.733835 -127.72984335 164.60249106 -129.85546875 166.21875 C-133.96356687 167.44397225 -136.29788461 167.85981357 -140.28515625 166.21875 C-155.69385924 157.38634704 -165.58883981 143.88192361 -170.859375 127.00390625 C-174.62606131 112.57404033 -174.68567776 98.40148631 -172.54296875 83.71875 C-172.4253418 82.8947168 -172.30771484 82.07068359 -172.18652344 81.22167969 C-170.14068382 68.31353048 -170.14068382 68.31353048 -165.60546875 64.15625 C-161.8732707 62.88390976 -159.63234716 63.12002174 -155.85546875 64.21875 C-153.51227223 66.41993461 -152.10468963 68.77894845 -150.52734375 71.5625 C-146.57250212 78.47306537 -142.40447298 84.08039993 -134.85546875 87.21875 C-128.00745913 88.22032964 -122.55802708 87.09699996 -116.85546875 83.21875 C-111.01906467 78.57615585 -108.34147302 73.1382844 -107.43359375 65.81640625 C-106.43054473 38.37187062 -119.92664332 11.26293454 -132.26586914 -12.49707031 C-132.95217407 -13.82689941 -132.95217407 -13.82689941 -133.65234375 -15.18359375 C-134.07225586 -15.984021 -134.49216797 -16.78444824 -134.92480469 -17.60913086 C-135.85546875 -19.78125 -135.85546875 -19.78125 -135.91796875 -23.15625 C-134.67789096 -26.21997159 -133.4692764 -27.7648841 -130.85546875 -29.78125 C-92.67502406 -42.28571764 -31.5022827 -21.34691141 0 0 Z " fill="#010000" transform="translate(211.85546875,157.78125)"/>
<path d="M0 0 C2.8670489 0.87556151 5.53637693 2.04451656 8.25 3.3125 C9.02504883 3.66787842 9.80009766 4.02325684 10.59863281 4.3894043 C25.23588858 11.2599829 38.73786767 19.44973977 51 30 C51.52142578 30.44311523 52.04285156 30.88623047 52.58007812 31.34277344 C70.45325273 46.6546483 84.6687562 66.04924124 91 89 C91.41765625 90.37865234 91.41765625 90.37865234 91.84375 91.78515625 C97.0587566 111.65529713 95.97779604 138.79419472 88 158 C85.97107053 160.58014152 84.35543867 161.49720799 81.125 162 C77.75969859 162.27940694 77.05787804 162.03496798 74 160.1875 C71.16598863 155.67079438 71.29517699 152.2008519 72 147 C72.66919383 144.22304597 73.45577382 141.50069656 74.265625 138.76171875 C80.2361536 116.30872023 75.17704148 90.5924861 64.0390625 70.73925781 C50.52062156 48.1111156 29.1398993 33.42178528 6 22 C5.98582031 22.90878906 5.97164063 23.81757813 5.95703125 24.75390625 C5.21207896 44.38440577 -2.4338526 58.93224715 -16 73 C-16.75667969 73.78503906 -17.51335937 74.57007813 -18.29296875 75.37890625 C-21.77885272 78.92478822 -25.31402469 82.30582994 -29.125 85.5 C-37.20669634 92.48696457 -43.35955781 101.29155794 -45 112 C-46.06961426 127.11212151 -44.5600384 141.46334158 -34.94140625 153.82421875 C-27.65628264 161.98883414 -19.88084322 167.00966387 -9.5625 170.5625 C-4.51068884 172.60095012 -4.51068884 172.60095012 -3 176 C-2.5625 179.5 -2.5625 179.5 -3 183 C-4.86708505 185.36497439 -6.32061431 186.66030715 -9 188 C-19.43862071 188.91841942 -29.92094757 182.80433576 -38.00390625 176.75 C-40.45687103 174.59288899 -42.74194791 172.35897062 -45 170 C-45.62003906 169.41089844 -46.24007812 168.82179688 -46.87890625 168.21484375 C-59.75506599 155.10823819 -63.9815852 135.75186518 -64 118 C-62.71459028 96.21814806 -51.35128274 80.97089588 -35.6953125 66.93359375 C-34.39835136 65.80569175 -33.09903183 64.68049334 -31.796875 63.55859375 C-20.47914822 53.74169596 -13.07750529 42.16930386 -12 27 C-12.00438216 22.28786458 -12.16576051 17.57567929 -12.390625 12.86914062 C-12.49196692 8.24858268 -12.50300648 5.76869223 -9.921875 1.82421875 C-6.1750957 -0.51501378 -4.36599948 -0.61252946 0 0 Z " fill="#030100" transform="translate(174,205)"/>
<path d="M0 0 C15.22374997 15.70124766 14.35504441 45.10815821 14.26074219 65.55541992 C14.25005048 68.29954316 14.26069361 71.04300614 14.2734375 73.78710938 C14.28681183 89.84824949 13.05172677 105.7452394 10.1875 121.5625 C10.01573242 122.52099854 9.84396484 123.47949707 9.66699219 124.46704102 C1.32365193 169.50839177 -17.62420205 211.60794913 -48 246 C-48.72445312 246.84691406 -49.44890625 247.69382812 -50.1953125 248.56640625 C-65.85024843 266.56091748 -85.1137476 281.55024768 -106 293 C-106.77923828 293.4326416 -107.55847656 293.8652832 -108.36132812 294.31103516 C-117.99759792 299.62958638 -127.72012861 304.51702376 -137.9375 308.625 C-138.75951904 308.9557251 -139.58153809 309.2864502 -140.4284668 309.62719727 C-144.60997433 311.25051404 -148.51392469 312.46714354 -153 313 C-150.94516287 310.94516287 -149.50468012 310.20425142 -146.87890625 309.0390625 C-128.03785326 300.49049036 -111.19553339 289.85179877 -95 277 C-94.43619629 276.55333984 -93.87239258 276.10667969 -93.29150391 275.64648438 C-79.17511408 264.34667633 -66.70944827 251.56156075 -56 237 C-55.36070557 236.14390137 -55.36070557 236.14390137 -54.70849609 235.27050781 C-29.513299 201.46719003 -13.53360542 161.52915793 -7.4375 119.875 C-7.3226123 119.09535889 -7.20772461 118.31571777 -7.08935547 117.51245117 C-6.69351036 114.67818895 -6.3406172 111.84148107 -6 109 C-5.91668427 108.31127808 -5.83336853 107.62255615 -5.74752808 106.91296387 C-4.29880448 94.66524231 -3.65438987 82.5498006 -3.68432617 70.21826172 C-3.68749933 67.50057226 -3.66383897 64.78396379 -3.63867188 62.06640625 C-3.56602627 41.83267043 -6.15974444 20.81661334 -14 2 C-9.70707562 -0.21570291 -4.72780158 -1.20943761 0 0 Z " fill="#C61D1D" transform="translate(481,160)"/>
<path d="M0 0 C2 3 2 3 1.8125 6.5 C1.0284084 9.87762534 0.73175021 11.03313985 -2 13 C-4.69229588 14.34614794 -6.99374966 14.22610553 -10 14.375 C-18.61100446 15.00229172 -27.83693374 16.36647066 -34 23 C-38.0360658 29.36335569 -40.08750577 35.36838283 -40.17700195 42.90698242 C-40.18983719 43.8553447 -40.20267242 44.80370697 -40.21589661 45.7808075 C-40.22328354 46.79544571 -40.23067047 47.81008392 -40.23828125 48.85546875 C-40.246353 49.91228348 -40.25442474 50.96909821 -40.26274109 52.05793762 C-40.27655248 54.29292169 -40.28728776 56.52792659 -40.29516602 58.76293945 C-40.30667701 61.03709133 -40.32711469 63.31121638 -40.35668945 65.58520508 C-40.39956583 68.88381171 -40.41556363 72.1816173 -40.42578125 75.48046875 C-40.44328934 76.48498581 -40.46079742 77.48950287 -40.47883606 78.52445984 C-40.45499707 86.38061662 -38.97001696 93.42517958 -33.8515625 99.5859375 C-33.11679687 100.17632812 -32.38203125 100.76671875 -31.625 101.375 C-30.83738281 102.02082031 -30.04976563 102.66664062 -29.23828125 103.33203125 C-27.47837152 104.64351721 -25.65521357 105.87015592 -23.8125 107.0625 C-19.0775288 110.32436905 -15.24433867 114.66440242 -13 120 C-13 120.99 -13 121.98 -13 123 C-13.84820312 123.06316406 -14.69640625 123.12632812 -15.5703125 123.19140625 C-28.76877684 124.56926791 -39.5712985 129.36632673 -49 139 C-49.969375 138.154375 -50.93875 137.30875 -51.9375 136.4375 C-53.29043425 135.29021176 -54.6446916 134.14448265 -56 133 C-56.67546875 132.4121875 -57.3509375 131.824375 -58.046875 131.21875 C-66.28213703 124.36605021 -75.90480237 121.19681258 -86 118 C-82.42945732 111.75155031 -77.65057219 108.30183862 -71.62109375 104.5 C-65.15262975 100.40792393 -61.5555913 96.33402301 -59 89 C-58.70473623 86.5042288 -58.70473623 86.5042288 -58.74462891 83.89697266 C-58.73419052 82.40854355 -58.73419052 82.40854355 -58.72354126 80.89004517 C-58.72453827 79.82547089 -58.72553528 78.76089661 -58.7265625 77.6640625 C-58.70625189 75.37890154 -58.68540074 73.09374534 -58.6640625 70.80859375 C-58.64160335 67.23026528 -58.62504476 63.65212584 -58.61914062 60.07373047 C-58.51675263 23.21917024 -58.51675263 23.21917024 -45.89453125 9.75390625 C-36.13973502 0.60353801 -12.18038186 -10.2771972 0 0 Z " fill="#5EA616" transform="translate(493,20)"/>
<path d="M0 0 C2.875 1.375 2.875 1.375 5 4 C6.43011232 12.022128 3.61623548 19.19685406 0.75 26.5625 C0.08097656 28.31784058 0.08097656 28.31784058 -0.6015625 30.10864258 C-11.45197645 57.98963546 -25.31047841 83.25846884 -46 105 C-46.51578613 105.54301758 -47.03157227 106.08603516 -47.56298828 106.64550781 C-68.46376429 128.50592095 -68.46376429 128.50592095 -79 129 C-81.80189446 127.23358828 -83.51524911 125.96950178 -85 123 C-85.375 120.1875 -85.375 120.1875 -85 117 C-81.65632166 113.28547733 -77.85544613 110.16135986 -74 107 C-42.32899435 80.50227349 -24.19390713 45.47212409 -11.96411133 6.49145508 C-9.75047429 0.77097749 -5.88019759 -0.98003293 0 0 Z " fill="#F4F2F2" transform="translate(384,290)"/>
<path d="M0 0 C2.69990662 1.79993774 4.5418865 3.083773 6 6 C6.02566883 7.84375523 5.9891484 9.6885437 5.921875 11.53125 C5.89609375 12.65273438 5.8703125 13.77421875 5.84375 14.9296875 C5.78205773 17.27913485 5.70436391 19.62822567 5.609375 21.9765625 C5.4535407 30.52796995 6.81035587 37.322597 12.65039062 43.8425293 C16.46731498 47.49273602 20.98839177 49.66556212 25.765625 51.82421875 C28.01672966 53.00880355 29.43234364 54.00434857 31 56 C31.51720825 59.98989218 31.33658892 62.31218785 29.5625 65.9375 C26.35483245 68.5192812 24.52611457 68.73039029 20.48828125 68.47265625 C10.37442855 66.55150056 2.02979464 59.25691256 -4.078125 51.2890625 C-10.63911833 41.44757251 -12.50068922 33.13392501 -12.375 21.375 C-12.38660156 20.281875 -12.39820313 19.18875 -12.41015625 18.0625 C-12.38803213 11.97099362 -12.09896855 7.31043906 -9 2 C-5.48746854 -0.34168764 -4.13530644 -0.49623677 0 0 Z " fill="#050300" transform="translate(182,307)"/>
<path d="M0 0 C3.18127592 1.1404574 4.32162323 2.90498828 6.0703125 5.7421875 C6.85211439 13.84650001 5.08484787 24.19523452 2.0703125 31.7421875 C-0.664117 34.37958885 -2.1816047 35.60192198 -5.9296875 36.3046875 C-8.9296875 35.7421875 -8.9296875 35.7421875 -11.8046875 33.8671875 C-14.86828801 29.36189263 -14.45422791 26.03654873 -13.9296875 20.7421875 C-13.82269531 19.57042969 -13.71570313 18.39867187 -13.60546875 17.19140625 C-12.25691767 5.4750955 -12.25691767 5.4750955 -7.9296875 0.7421875 C-5.24254938 -0.60138156 -2.93286975 -0.18957713 0 0 Z " fill="#F4EFEF" transform="translate(394.9296875,237.2578125)"/>
</svg>
