<?xml version="1.0" standalone="no"?>
<!DOCTYPE svg PUBLIC "-//W3C//DTD SVG 20010904//EN"
 "http://www.w3.org/TR/2001/REC-SVG-20010904/DTD/svg10.dtd">
<svg version="1.0" xmlns="http://www.w3.org/2000/svg"
 width="512.000000pt" height="512.000000pt" viewBox="0 0 512.000000 512.000000"
 preserveAspectRatio="xMidYMid meet">

<g transform="translate(0.000000,512.000000) scale(0.100000,-0.100000)"
fill="#000000" stroke="none">
<path d="M2420 5114 c-208 -27 -407 -101 -580 -217 -96 -64 -273 -241 -337
-337 -92 -137 -155 -282 -195 -450 -19 -77 -21 -125 -25 -497 l-5 -413 -107 0
c-64 0 -131 -6 -166 -15 -172 -45 -305 -179 -350 -352 -22 -86 -22 -2380 0
-2466 45 -173 178 -307 350 -352 52 -13 244 -15 1555 -15 1311 0 1503 2 1555
15 172 45 305 179 350 352 22 86 22 2380 0 2466 -45 173 -178 307 -350 352
-35 9 -102 15 -166 15 l-107 0 -5 413 c-4 372 -6 420 -25 497 -62 257 -170
450 -351 631 -185 185 -380 293 -631 350 -83 19 -331 33 -410 23z m371 -343
c182 -47 320 -128 454 -265 95 -97 162 -199 209 -317 57 -147 59 -163 63 -591
l4 -398 -961 0 -961 0 3 398 c4 367 6 403 25 473 51 184 130 319 262 449 154
153 303 227 551 274 59 11 277 -3 351 -23z m1295 -1917 c15 -11 37 -33 48 -48
21 -27 21 -33 24 -1192 3 -1289 7 -1207 -64 -1260 l-37 -29 -1497 0 -1497 0
-37 29 c-70 53 -66 -26 -66 1245 0 790 3 1159 11 1178 14 37 47 73 84 89 25
11 293 13 1517 11 1484 -2 1487 -2 1514 -23z"/>
</g>
</svg>
